<svg width="75" height="73" viewBox="0 0 75 73" fill="none" xmlns="http://www.w3.org/2000/svg">
<path d="M22.47 5.029C16.371 7.704 8.88103 10.165 5.88503 10.593C2.14003 11.021 0.535034 11.663 0.535034 12.84C0.535034 16.157 10.379 14.659 23.754 9.202L36.38 4.066L46.759 9.309L57.138 14.445L62.702 23.54C65.805 28.569 68.373 33.277 68.373 33.919C68.587 37.236 64.949 34.668 58.636 26.964C52.537 19.688 51.039 18.511 45.796 16.799C38.199 14.445 36.166 14.445 32.742 17.227C29.211 20.009 29.104 23.861 32.635 27.285C34.882 29.639 36.166 29.96 42.479 29.96C53.179 29.96 63.986 35.952 60.241 39.697C59.278 40.66 57.138 40.66 51.039 39.59C45.047 38.627 41.409 38.52 35.631 39.483C23.647 41.302 21.507 41.088 14.552 36.808C10.593 34.347 6.84803 32.849 4.38703 32.742C-0.962966 32.635 -0.641966 35.203 4.81503 36.915C7.16903 37.557 11.128 39.483 13.482 41.088C19.26 44.833 23.647 45.475 34.668 43.87C46.438 42.265 49.22 42.8 49.22 47.08C49.22 49.434 50.076 50.611 52.43 52.109C55.533 53.928 55.64 54.249 55.64 61.632C55.64 70.085 57.245 72.76 62.274 72.76C66.768 72.76 68.48 69.764 68.48 61.418C68.48 54.356 68.587 53.928 71.69 52.216C74.686 50.504 74.9 49.969 74.9 43.977C74.9 40.446 74.472 37.236 73.83 36.915C73.295 36.594 72.76 35.203 72.76 34.026C72.76 32.742 69.871 27.071 66.233 21.293L59.813 10.807L48.792 5.35C42.693 2.461 36.915 0 35.738 0.107002C34.668 0.213997 28.676 2.354 22.47 5.029ZM44.405 20.972C47.508 21.935 50.397 23.54 51.039 24.503C52.002 26.001 51.253 26.215 44.298 25.894C36.273 25.466 33.384 24.075 34.668 20.865C35.417 18.832 37.557 18.832 44.405 20.972ZM70.406 44.084C70.085 47.936 69.657 48.685 67.41 49.22C64.842 49.862 64.735 50.183 64.414 59.171C64.093 67.624 63.879 68.48 62.06 68.48C60.134 68.48 59.92 67.731 59.92 59.278V50.183L56.71 49.113C54.998 48.471 53.5 47.187 53.5 46.331C53.5 45.154 54.677 44.833 59.171 45.154C64.521 45.475 64.735 45.368 65.056 42.479C65.377 40.232 65.912 39.59 68.052 39.59C70.513 39.59 70.727 39.911 70.406 44.084Z" fill="#12273D"/>
</svg>
